<svg xmlns="http://www.w3.org/2000/svg" viewBox="0 0 625.55 103.97"><defs><style>.cls-1{fill:#f7931e;}</style></defs><g id="Calque_2" data-name="Calque 2"><g id="Calque_1-2" data-name="Calque 1"><path class="cls-1" d="M137.91,68.63,105.09,11.78A23.32,23.32,0,0,0,84.68,0h0A23.33,23.33,0,0,0,70.55,4.68,23.61,23.61,0,0,0,36,11.78L3.19,68.63A23.56,23.56,0,0,0,23.6,104h93.9a23.56,23.56,0,0,0,20.41-35.34ZM11.85,87.19a13.43,13.43,0,0,1,0-13.56L44.67,16.78A13.6,13.6,0,0,1,64,12.29L31.46,68.63a23.31,23.31,0,0,0,0,23.56c.36.62.75,1.21,1.15,1.78h-9A13.44,13.44,0,0,1,11.85,87.19Zm40,6.78A13.56,13.56,0,0,1,40.12,73.63L70.55,20.92,101,73.63A13.56,13.56,0,0,1,89.24,94Zm77.38-6.78A13.41,13.41,0,0,1,117.5,94h-9c.4-.58.79-1.16,1.14-1.78a23.31,23.31,0,0,0,0-23.56L77.12,12.29A13.4,13.4,0,0,1,84.68,10h0a13.43,13.43,0,0,1,11.75,6.78l32.82,56.85A13.43,13.43,0,0,1,129.25,87.19Z"/><path class="cls-1" d="M217.53,78.92a13.16,13.16,0,0,1,.92,4.38c0,2.47-1.29,4.88-3.85,7.24a30.37,30.37,0,0,1-10.27,5.89,40.29,40.29,0,0,1-14,2.36,41.35,41.35,0,0,1-21.55-5.56,37.4,37.4,0,0,1-14.53-16q-5.18-10.44-5.18-24.76,0-14.65,5.6-25.43a39.65,39.65,0,0,1,15.53-16.5,43.94,43.94,0,0,1,22.3-5.72q12.36,0,19.3,6A19.25,19.25,0,0,1,218.78,26q0,7.92-4,12.38a13.27,13.27,0,0,1-10.36,4.46A11.25,11.25,0,0,1,195.73,39a13.54,13.54,0,0,1-3.51-9.43,13.08,13.08,0,0,1,1.34-6.23,15.76,15.76,0,0,1,3.67-4.55,10,10,0,0,0-4.84-1.51q-5.69,0-10,6.82T178,46.59q0,17.85,5.18,25.68t15.2,7.83a32.7,32.7,0,0,0,9.27-1.35,20.78,20.78,0,0,0,7.6-3.87A12.73,12.73,0,0,1,217.53,78.92Z"/><path class="cls-1" d="M236.21,86.75q-11-11.7-11-33.42,0-15.49,5.26-26.44a37.13,37.13,0,0,1,14.79-16.51,43,43,0,0,1,22-5.55,41.16,41.16,0,0,1,21.13,5.3,36,36,0,0,1,14.2,15.58Q307.7,36,307.7,50.63q0,15.33-5.26,26.1A36.72,36.72,0,0,1,287.66,93a43.56,43.56,0,0,1-22.05,5.47Q247.24,98.46,236.21,86.75Zm39.42-7.15q2.83-6.73,2.84-24.93,0-15.31-1.5-23.57t-4.18-11.29a8.73,8.73,0,0,0-6.85-3q-5.85,0-8.77,6.74t-2.92,25.26q0,15.15,1.5,23.32T260,83.3a9,9,0,0,0,6.93,3Q272.79,86.33,275.63,79.6Z"/><path class="cls-1" d="M461,88.2v5q-6.45,5.64-20.85,5.64-7.11,0-11.18-2c-2.71-1.31-4.07-3.61-4.07-6.92V33q0-5.48-3-8.46a10.6,10.6,0,0,0-7.88-3,14.93,14.93,0,0,0-10.51,4.1,13.66,13.66,0,0,1,.17,2.56V79.32c0,3.3.68,5.67,2,7.09s3.5,2.14,6.44,2.14a12.8,12.8,0,0,1-4.07,9.22H372a13.44,13.44,0,0,1-3.9-9.22q4.25,0,6.1-2.14c1.25-1.42,1.87-3.79,1.87-7.09V33A11.38,11.38,0,0,0,373,24.65a10.33,10.33,0,0,0-7.63-3.08,15.61,15.61,0,0,0-6.78,1.62A16,16,0,0,0,353,27.55V79.32c0,3.3.59,5.67,1.78,7.09s3.19,2.14,6,2.14a12.42,12.42,0,0,1-4.07,9.22H320a12.8,12.8,0,0,1-4.07-9.22q5.08,0,7.29-2.14c1.47-1.42,2.2-3.79,2.2-7.09V29.26c0-3.08-.84-5.27-2.54-6.58s-4.63-2-8.81-2V13.2q5.42-3.24,15.34-5.81t15-2.56a7.52,7.52,0,0,1,5.84,2.3c1.41,1.54,2.35,4.42,2.8,8.63a30.16,30.16,0,0,1,11.19-8,38,38,0,0,1,15.08-2.9q17,0,22,11.44a28.92,28.92,0,0,1,11.44-8.45,39.6,39.6,0,0,1,15.68-3q12,0,18.13,6t6.1,17.42V79.32Q452.65,86.67,461,88.2Z"/><path class="cls-1" d="M536.86,73a11.66,11.66,0,0,1,2.37,4.1,13.94,13.94,0,0,1,1,4.77c0,2-1.36,4.41-4.06,7.08a33.91,33.91,0,0,1-11.25,6.91,43,43,0,0,1-16.16,2.9q-12.52,0-21.91-5.46a36.14,36.14,0,0,1-14.46-15.86q-5.09-10.41-5.08-24.56,0-14.49,5.5-25.41A40.37,40.37,0,0,1,488,10.71a41.07,41.07,0,0,1,21.82-5.88q15.4,0,24.53,9t9.14,25.08q0,7.5-2.37,11.85t-8.46,4.35H496.09q1,24.72,21,24.73A32.41,32.41,0,0,0,536.86,73ZM500,22.48q-3.56,5.88-3.89,19.7h17.09c1.8,0,3-.63,3.55-1.88a15,15,0,0,0,.85-5.8q0-10.07-2.37-14a7.22,7.22,0,0,0-6.43-3.93Q503.53,16.59,500,22.48Z"/><path class="cls-1" d="M619,73a11.66,11.66,0,0,1,2.37,4.1,14.14,14.14,0,0,1,1,4.77q0,3.07-4.06,7.08A33.71,33.71,0,0,1,607,95.9a42.91,42.91,0,0,1-16.15,2.9q-12.52,0-21.91-5.46a36.22,36.22,0,0,1-14.47-15.86q-5.07-10.41-5.07-24.56,0-14.49,5.5-25.41a40.37,40.37,0,0,1,15.14-16.8,41.07,41.07,0,0,1,21.82-5.88q15.39,0,24.53,9t9.14,25.08q0,7.5-2.37,11.85t-8.46,4.35H578.18q1,24.72,21,24.73A32.41,32.41,0,0,0,619,73ZM582.07,22.48q-3.55,5.88-3.89,19.7h17.09c1.8,0,3-.63,3.55-1.88a15,15,0,0,0,.84-5.8q0-10.07-2.36-14t-6.43-3.93Q585.62,16.59,582.07,22.48Z"/></g></g></svg>