<svg xmlns="http://www.w3.org/2000/svg" viewBox="0 0 240.59 188.76"><defs><style>.cls-1{fill:#fff;}</style></defs><g id="Calque_2" data-name="Calque 2"><g id="Calque_1-2" data-name="Calque 1"><path class="cls-1" d="M101.89,32.77,69.58.47a1.58,1.58,0,0,0-2.25,0L.47,67.33a1.59,1.59,0,0,0,0,2.26l15,15a1.61,1.61,0,0,0,2.26,0L68.46,33.9,84.61,50.05a1.59,1.59,0,0,0,2.25,0l15-15A1.61,1.61,0,0,0,101.89,32.77Z"/><path class="cls-1" d="M35,104.14l32.3,32.31a1.61,1.61,0,0,0,2.26,0L120.3,85.74,103,68.46,68.46,103,52.31,86.86a1.61,1.61,0,0,0-2.26,0l-15,15A1.58,1.58,0,0,0,35,104.14Z"/><path class="cls-1" d="M103,68.46l68-68a1.58,1.58,0,0,1,2.25,0l32.31,32.3a1.61,1.61,0,0,1,0,2.26l-15,15a1.59,1.59,0,0,1-2.25,0L172.14,33.9,120.3,85.74Z"/><path class="cls-1" d="M222.85,52.31,172.14,103,156,86.86a1.59,1.59,0,0,0-2.25,0l-15,15a1.59,1.59,0,0,0,0,2.25L171,136.45a1.59,1.59,0,0,0,2.25,0l66.87-66.87a1.59,1.59,0,0,0,0-2.25l-15-15A1.58,1.58,0,0,0,222.85,52.31Z"/><path class="cls-1" d="M86.86,156l32.31,32.31a1.59,1.59,0,0,0,2.25,0L153.73,156a1.59,1.59,0,0,0,0-2.25l-15-15a1.59,1.59,0,0,0-2.25,0L120.3,154.86,104.14,138.7a1.59,1.59,0,0,0-2.25,0l-15,15A1.59,1.59,0,0,0,86.86,156Z"/><path class="cls-1" d="M51.18,120.3,68.46,103,52.31,86.86a1.61,1.61,0,0,0-2.26,0l-15,15a1.58,1.58,0,0,0,0,2.25Z"/><path class="cls-1" d="M68.46,33.9,85.74,16.62l16.15,16.15a1.61,1.61,0,0,1,0,2.26l-15,15a1.59,1.59,0,0,1-2.25,0Z"/><path class="cls-1" d="M33.9,33.9,67.33.47a1.58,1.58,0,0,1,2.25,0l15,15a1.61,1.61,0,0,1,0,2.26L51.18,51.18Z"/></g></g></svg>